<?xml version="1.0" encoding="UTF-8" standalone="no"?>
<!-- Creator: CorelDRAW -->

<svg
   xml:space="preserve"
   width="40mm"
   height="8.9493999mm"
   version="1.1"
   style="clip-rule:evenodd;fill-rule:evenodd;image-rendering:optimizeQuality;shape-rendering:geometricPrecision;text-rendering:geometricPrecision"
   viewBox="0 0 4000000 894939.99"
   id="svg39"
   sodipodi:docname="Optipharm-LOGO.svg"
   inkscape:version="1.2.2 (732a01da63, 2022-12-09)"
   xmlns:inkscape="http://www.inkscape.org/namespaces/inkscape"
   xmlns:sodipodi="http://sodipodi.sourceforge.net/DTD/sodipodi-0.dtd"
   xmlns="http://www.w3.org/2000/svg"
   xmlns:svg="http://www.w3.org/2000/svg"><sodipodi:namedview
   id="namedview41"
   pagecolor="#ffffff"
   bordercolor="#000000"
   borderopacity="0.25"
   inkscape:showpageshadow="2"
   inkscape:pageopacity="0.0"
   inkscape:pagecheckerboard="0"
   inkscape:deskcolor="#d1d1d1"
   inkscape:document-units="mm"
   showgrid="false"
   inkscape:zoom="5.9176146"
   inkscape:cx="58.553999"
   inkscape:cy="103.75802"
   inkscape:window-width="3840"
   inkscape:window-height="2066"
   inkscape:window-x="-11"
   inkscape:window-y="-11"
   inkscape:window-maximized="1"
   inkscape:current-layer="Слой_x0020_1" />
 <defs
   id="defs28">
  <style
   type="text/css"
   id="style26">
   <![CDATA[
    .fil0 {fill:#00D1FF}
    .fil1 {fill:#333333;fill-rule:nonzero}
    .fil2 {fill:white;fill-rule:nonzero}
   ]]>
  </style>
 </defs>
 <g
   id="Слой_x0020_1"
   inkscape:label="Слой 1"
   inkscape:groupmode="layer"
   transform="translate(-1191363.9,1576279.3)">
  <metadata
   id="CorelCorpID_0Corel-Layer" />
  <g
   id="_1683376483616"
   transform="translate(697493.88,-1882339.3)">
   <path
   class="fil0"
   d="m 886080,306060 h 1925690 v 502730 c 0,215710 -176490,392210 -392210,392210 H 493870 V 698270 c 0,-215720 176500,-392210 392210,-392210 z"
   id="path31" />
   <path
   class="fil1"
   d="M 2213210,1201000 V 840560 c 0,-31410 1380,-55350 4020,-71810 2760,-16460 7180,-31550 13410,-44970 16750,-36810 41930,-65860 75410,-87030 33490,-21170 70850,-31830 112220,-31830 59770,0 109170,20070 148180,60050 39030,40000 58530,90770 58530,152480 0,61710 -19500,112490 -58390,152480 -38880,39990 -88410,60060 -148460,60060 -8020,0 -16890,-560 -26290,-1670 -9550,-1110 -19510,-2630 -30020,-4850 V 888710 c 12720,4010 22960,6920 30850,8440 7890,1660 14800,2490 20750,2490 24360,0 43720,-7470 57980,-22280 14390,-14800 21580,-34860 21580,-59910 0,-24760 -6770,-44550 -20470,-59360 -13560,-14670 -31970,-21990 -54930,-21990 -24770,0 -43730,7880 -56870,23510 -13150,15640 -19650,38330 -19650,67940 v 373450 z M 2931320,306060 V 434730 H 4493870 V 306060 Z m -248220,718110 V 306060 h 128670 v 333730 c 13020,-11620 27400,-20330 43450,-26150 15920,-5810 32650,-8720 50220,-8720 47050,0 84550,18130 112640,54380 27940,36250 41930,85520 41930,148050 v 216820 H 2931320 V 795180 c 0,-19230 -5670,-34870 -16870,-46910 -11210,-12030 -25610,-17990 -43040,-17990 -17300,0 -31540,5960 -42750,17990 -11210,12040 -16890,27680 -16890,46910 v 228990 z m 714790,0 V 827550 c 0,-30160 -6640,-52990 -19790,-68350 -13280,-15350 -33060,-23100 -59210,-23100 -21590,0 -39170,7470 -52730,22410 -13410,15090 -20200,34730 -20200,58940 0,25050 7060,45110 21310,59910 14260,14810 33620,22280 58250,22280 5960,0 12870,-830 20760,-2490 7890,-1520 18120,-4430 30850,-8440 v 134630 c -10510,2210 -20470,3870 -30020,4980 -9410,1110 -18260,1670 -26290,1670 -60050,0 -109590,-20070 -148460,-60060 -38880,-39990 -58400,-90770 -58400,-152480 0,-61710 19520,-112480 58400,-152480 38870,-39980 88270,-60050 148320,-60050 41370,0 78730,10660 112210,31830 33630,21170 58670,50220 75420,87030 6500,13980 11200,29610 13970,46770 2900,17150 4290,44410 4290,81770 v 171850 z m 200080,0 V 613230 h 118850 v 61700 c 13010,-21440 29750,-37070 50230,-46900 20610,-9820 46760,-14800 78730,-14800 h 15350 v 124530 h -5670 c -46770,0 -80390,10370 -101150,30990 -20610,20610 -30990,54370 -30990,101010 v 154410 z m 299820,0 V 807220 c 0,-60750 16330,-109720 48850,-146670 32520,-37080 74860,-55630 127020,-55630 23530,0 45520,4570 66280,13840 20610,9140 38870,22550 54930,40130 16460,-17290 35000,-30580 55480,-39990 20620,-9270 41510,-13980 62540,-13980 54660,0 98520,18270 131440,54930 33080,36680 49540,85790 49540,147370 v 216950 H 4366030 V 787430 c 0,-16750 -4980,-30580 -14950,-41520 -10100,-10920 -22830,-16460 -38190,-16460 -15350,0 -28230,5540 -38600,16460 -10240,10940 -15370,24770 -15370,41520 v 236740 H 4131910 V 787430 c 0,-16750 -5120,-30580 -15360,-41520 -10240,-10920 -23100,-16460 -38740,-16460 -15360,0 -28090,5540 -38050,16460 -9970,10940 -14950,24770 -14950,41520 v 236740 z"
   id="path33" />
   <path
   class="fil2"
   d="m 621720,733460 c 0,-40530 7340,-78860 22140,-114980 14670,-36110 36390,-68490 65030,-97400 27820,-28370 59500,-49950 95060,-64890 35560,-14810 73050,-22280 112490,-22280 38880,0 76240,7610 111940,22690 35560,15080 67520,36940 95610,65300 28080,28640 49540,60880 64200,97000 14800,36110 22140,74300 22140,114560 0,40550 -7480,78880 -22280,115260 -14940,36390 -36250,68630 -64060,97000 -28090,28640 -60050,50640 -95610,65720 -35700,15080 -73060,22690 -111940,22690 -39440,0 -76930,-7470 -112490,-22550 -35560,-14940 -67240,-36520 -95060,-64620 -28640,-29190 -50360,-61850 -65030,-98100 -14800,-36110 -22140,-74720 -22140,-115400 z m 78880,-680 c 0,31400 5530,60740 16460,88140 10930,27530 26700,52160 47590,74020 20490,21440 43860,37780 70160,49120 26150,11350 53400,17010 81770,17010 28640,0 55900,-5660 81770,-17010 25740,-11340 48850,-27680 69040,-49120 20900,-22140 36680,-47050 47610,-74580 10920,-27540 16460,-56730 16460,-87580 0,-30590 -5390,-59500 -16190,-86760 -10790,-27260 -26840,-52030 -47880,-74160 -20190,-21730 -43300,-38190 -69040,-49540 -25870,-11340 -53130,-17020 -81770,-17020 -28640,0 -56040,5680 -82190,16890 -26290,11200 -49540,27390 -69740,48840 -21030,22140 -37080,46910 -47870,74300 -10790,27530 -16180,56590 -16180,87450 z m 578640,468220 V 857300 c 0,-33760 1660,-60040 5120,-78720 3320,-18680 8990,-35840 16740,-51620 16470,-33760 40540,-60180 72230,-79280 31820,-19100 67110,-28640 105990,-28640 57830,0 105420,19370 142930,58250 37490,38740 56310,87860 56310,147360 0,27110 -4710,52990 -13970,77620 -9280,24490 -22700,46490 -40270,65590 -17850,20060 -39150,35550 -64060,46490 -24910,10930 -50780,16460 -77770,16460 -19780,0 -38600,-2210 -56580,-6640 -17850,-4430 -35010,-11340 -51200,-20470 v -76660 c 16190,12450 32650,21580 49540,27530 16740,5950 33760,8990 51060,8990 38180,0 69450,-13140 94080,-39290 24630,-26280 36940,-59910 36940,-101000 0,-40000 -12040,-72790 -36110,-98530 -24080,-25590 -54930,-38450 -92570,-38450 -37630,0 -68210,12860 -91730,38740 -23520,25730 -35290,59490 -35290,101140 v 374830 z m 468220,-679920 h 71410 v 105430 h 120370 v 67250 h -120370 v 170320 c 0,31830 7740,55210 23230,69880 15640,14800 40410,22130 74450,22130 h 22690 v 68080 h -23520 c -56180,0 -98380,-12310 -126330,-36950 -27940,-24480 -41930,-61560 -41930,-110960 z m 266490,503090 V 626510 h 71410 v 397660 z m -7470,-510700 c 0,-11900 4160,-22140 12590,-30450 8310,-8440 18680,-12590 30860,-12590 12040,0 22280,4150 30580,12320 8160,8300 12320,18540 12320,30720 0,12310 -4160,22830 -12320,31410 -8300,8440 -18540,12720 -30580,12720 -11900,0 -22140,-4280 -30710,-13000 -8440,-8580 -12740,-18960 -12740,-31130 z"
   id="path35" />
  </g>
 </g>
</svg>
